<?xml version="1.0" encoding="UTF-8"?>
<svg id="Layer_1" data-name="Layer 1" xmlns="http://www.w3.org/2000/svg" viewBox="0 0 512 512">
  <defs>
    <style>
      .cls-1 {
        fill: #093;
      }

      .cls-1, .cls-2 {
        stroke-width: 0px;
      }

      .cls-2 {
        fill: #00428b;
      }
    </style>
  </defs>
  <path class="cls-2" d="m151.71,336.38c-.49-6.96-3.45-12.2-8.79-15.58-4.37-2.76-10.38-4.22-17.41-4.22h-24.26l-11.31,81.16h23.62c15.03,0,25.58-3.16,31.39-9.4,3.81-4.09,5.51-9.49,5.05-16.04-.6-8.7-4.86-14.69-11.8-16.86,8.45-2.61,14.12-10.37,13.52-19.08Zm-21.72,43.04c-3.47,3.73-10.07,4.24-16.67,4.24h-4.56l2.97-21.49h4.48c8.09,0,15.64,1.07,16.18,8.83.25,3.66-.53,6.41-2.4,8.42Zm2.2-34.63c-3.05,3.28-8.87,3.97-13.21,3.97h-5.35l2.63-18.07h4.94c6.64,0,12.64.55,13.11,7.24.2,2.84-.51,5.15-2.11,6.86Zm101.01-28.2h-16.63l-8.49,58.48-20.52-58.48h-21.4l-11.78,81.16h16.86l8.12-58.96,20.21,58.96h21.74l11.89-81.16Zm59.51,6.79c-6.4-4.51-14.8-6.79-24.96-6.79h-24.6l-11.43,81.16h27.73c16.28,0,28.65-4.42,36.77-13.14,10.21-10.97,10.83-25.57,10.29-33.29-.89-12.72-5.53-22.12-13.8-27.94Zm-11.51,52c-5.11,5.49-12.97,8.28-23.36,8.28h-6.5l7.38-52.98h4.83c14.6,0,23.8,6.88,24.61,18.42.81,11.6-1.54,20.45-6.96,26.28Zm54.18-44.7h31.15l1.71-14.09h-48.44l-11.43,81.16h49.02l2.09-14.09h-31.49l2.9-20.81h27.95l1.83-14.09h-27.82l2.53-18.08Zm86-11.87c-6.07-2.38-13.2-3.59-21.18-3.59-10.06,0-18.38,2.99-23.44,8.43-3.97,4.27-5.75,9.8-5.28,16.44.84,12.08,9.63,16.81,17.38,20.98,6.26,3.37,11.66,6.28,12.08,12.32.21,3.06-.61,5.61-2.46,7.6-2.39,2.57-6.43,4.04-11.1,4.04-6.92,0-13.73-2.79-19.57-5.41l-.84-.38-3.52,15.14.68.24c8.38,2.98,16.21,4.49,23.28,4.49,11.63,0,20.61-3.05,25.97-8.81,4.29-4.61,6.19-10.86,5.65-18.57-.91-13-10.55-18.47-18.29-22.86-5.84-3.31-10.88-6.17-11.24-11.25-.13-1.91.42-3.55,1.64-4.86,2.38-2.55,6.89-3.46,10.33-3.46,5.31,0,11.31,1.47,16.47,4.02l.88.44,3.19-14.71-.63-.25Z"/>
  <path class="cls-1" d="m222.34,171.75c-19.87,0-37.36,10.21-47.51,25.66v78.61h78.7c15.42-10.15,25.6-27.62,25.6-47.47,0-31.37-25.43-56.81-56.8-56.81Zm-47.51-58.01v65.58l64.93-64.92,96.71,96.71-64.94,64.92h65.58V113.74h-162.28Z"/>
</svg>