<svg xmlns="http://www.w3.org/2000/svg" width="512" height="512" fill="none" xmlns:v="https://vecta.io/nano"><path fill-rule="evenodd" d="M168.141 181.665c0-8.576 6.414-14.665 15.679-14.665 9.071 0 15.486 6.285 15.486 15.058s-6.35 14.862-15.486 14.862-15.679-6.481-15.679-15.255zm200.923 24.618c-26.73 0-44.156 22.659-59.889 43.115l-.003.004-1.986 2.579-5.248 6.811h0c-13.147 17.154-21.876 28.543-35.96 28.543-14.902 0-25.723-12.504-25.723-27.759 0-15.648 10.432-27.76 25.529-27.76 6.738 0 14.513 3.143 21.641 10.148l15.874-18.659c-9.266-10.148-22.224-17.022-36.738-17.022-29.027 0-52.223 24.224-52.223 53.358 0 31.295 21.446 53.359 52.029 53.359 20.086 0 34.729-10.606 50.862-31.426C332.65 301.477 346.386 313 369.388 313 399.387 313 422 290.347 422 259.641c.065-29.134-23.002-53.358-52.936-53.358zm.583 81.118c-15.745 0-26.371-11.785-37.839-26.45 13.218-19.314 23.973-29.069 37.45-29.069 15.875 0 26.889 12.112 26.889 27.759s-10.626 27.76-26.5 27.76zM90 310.643v-53.555c0-30.902 19.308-49.823 47.558-49.823 5.248 0 10.626.785 15.68 2.16v25.403c-4.082-1.375-8.877-1.964-13.153-1.964-16.652 0-24.751 8.773-24.751 26.385v51.394H90zm80.861-102.004h25.334v102.004h-25.334V208.639z" fill="#ff5200"/></svg>